<svg xmlns="http://www.w3.org/2000/svg" width="198.5" height="73"><style type="text/css"><![CDATA[
	.st0{fill:#FFFFFF;}
	.st1{fill:#633C20;}
	.st2{fill-rule:evenodd;clip-rule:evenodd;fill:#FFFFFF;}
	.st3{fill-rule:evenodd;clip-rule:evenodd;fill:#633C20;}
	.st4{fill:#D3222A;}
	.st5{fill-rule:evenodd;clip-rule:evenodd;fill:#D3222A;}
]]></style><g id="Background"><path class="st2" d="M11.276 64.995c.268 1.636 2.478 3.569 4.422 3.563 21.612-.072 163.526-.333 166.574-.343 2.368-.008 4.917-1.356 5.372-3.488 2.831-13.26 6.068-25.194 6.742-29.051.783-4.484-2.784-5.739-3.537-5.733-.753.006-12.13-.584-14.193-.956-2.061-.372-2.059-.956-1.865-2.514.194-1.559.977-9.556.987-12.094.01-2.538-2.807-2.9-4.498-2.883-1.191.012-8.261-.242-12.21-.259-1.65-.007-5.061-.398-5.663 1.791-.554 2.015-1.447 8.865-1.935 10.461-.378 1.238-1.344 1.246-2.712 1.074-4.412-.554-7.134-.877-8.4-1.104-1.247-.223-.497-2.28-1.728-5.472-.858-2.225-1.761-3.623-3.168-4.608-.515-.36-1.257-.874-.72-1.872.324-.601 1.297-2.04 1.152-2.735-.107-.515-1.803-1.287-2.229-1.41-1.808-.521-10.792-2.795-11.363-2.946-.737-.194-1.497 1.162-1.527 1.908-.057 1.408.351 1.91.163 2.182-.188.271-2.502 1.166-2.755 1.274-.58.249-1.346-.355-2.016-1.008-1.85-1.801-4.692-5.104-12.384-4.896-7.34.199-13.31 6.653-14.256 9.792-.816 2.709-.669 4.917-.72 5.328-.129 1.058-1.102 1.234-2.225 1.218-2.202-.034-1.603.204-3.867.412-.879.081-1.636-.215-1.681-1.019-.046-.804-.416-10.802-.459-11.367-.043-.564-1.063-.843-1.745-.845-6.114-.017-42.394.292-61.736 2.385-11.086 1.2-15.91 7.24-14.673 15.953 1.25 8.813 8.595 37.688 8.853 39.262z"/><path class="st3" d="M11.972 64.017c.242 1.604 2.44 3.508 4.404 3.508h165.456s4.755-1.7 5.184-3.744c2.661-12.681 5.712-23.839 6.336-27.504.725-4.256-2.299-5.472-3.024-5.472-.725 0-12.533-.859-14.526-1.229s-1.993-.926-1.812-2.405c.181-1.48.906-9.068.906-11.474s-2.718-2.775-4.349-2.775c-1.15 0-6.728-.092-10.547-.146-1.597-.022-4.899-.428-5.48 1.646-.534 1.909-1.393 8.42-1.865 9.936-.366 1.177-1.304 1.588-2.633 1.413-4.289-.564-9.532-1.267-10.764-1.493-1.215-.225-.467-1.679-.558-2.972-.105-1.501-1.638-5.854-4.034-7.36-.517-.325-1.305-1.012-.78-1.956.316-.569.749-1.676 1.014-2.101.265-.425-.393-1.144-.809-1.266-1.759-.514-10.508-2.77-11.065-2.92-.719-.193-1.247.557-1.279 1.267-.06 1.34.12 2.356-.064 2.612-.184.257-2.759 1.009-3.007 1.11-.567.231-1.265.437-1.917-.191-1.802-1.735-4.334-5.996-11.864-5.881-7.199.111-13.519 6.3-14.473 9.295-.824 2.587-.617 5.007-.669 5.401-.135 1.013-.733 1.572-1.841 1.546-2.171-.052-3.714.302-5.951.481-.87.07-1.614-.221-1.651-.993-.038-.773-.458-10.64-.495-11.181-.038-.541-1.042-.818-1.714-.827-5.955-.079-39.163.86-58.626 2.691-11.136 1.047-16.563 5.553-15.483 14.011 1.088 8.516 7.738 37.368 7.98 38.973z"/><path class="st2" d="M13.271 63.223c.237 1.543 1.76 3.086 3.689 3.086 22.21 0 163.002-.433 165.258-.433s3.211-1.134 3.633-3.1c2.614-12.193 5.45-22.239 6.063-25.764.712-4.093-2.026-5.057-2.738-5.057-.712 0-12.727-1.027-14.685-1.383-1.958-.356-1.958-.891-1.781-2.313.178-1.424.89-8.72.89-11.032 0-2.313-2.67-2.67-4.272-2.67-1.13 0-6.61-.088-10.362-.141-1.569-.021-3.132-.457-3.703 1.537-.525 1.836-.752 8.234-1.216 9.692-.36 1.132-.973 1.597-2.279 1.428-4.214-.542-12.262-1.408-13.473-1.627-1.193-.215-.896-1.643-.986-2.885-.104-1.444-1.244-5.844-4.284-7.82-.5-.324-1.282-.973-.767-1.881.311-.547.736-1.611.996-2.02.26-.409-.386-1.101-.794-1.217-1.729-.494-7.641-2.207-8.188-2.352-.706-.186-1.225.535-1.256 1.218-.06 1.288.128 2.167-.064 2.513-.213.383-.912.255-1.311.291-1.182.108-1.497.244-3.276 1.118-.538.264-1.243.421-1.884-.184-1.77-1.669-4.258-5.767-11.656-5.655-7.073.107-12 6.059-12.937 8.938-.809 2.488-.605 4.815-.657 5.194-.133.974-.721 1.512-1.809 1.486-2.133-.049-6.681.404-8.879.577-.854.067-1.585-.212-1.623-.955s-.449-10.231-.486-10.751c-.038-.521-1.023-.787-1.684-.796-5.851-.075-36.728.714-55.851 2.475-10.941 1.01-16.096 5.467-15.035 13.6 1.069 8.188 7.169 35.34 7.407 36.883z"/></g><g id="Text"><path class="st4" d="M36.116 39.145c-.019.118-.073.237-.163.358-.09.12-.195.199-.314.236-.084.036-.213.07-.387.101l-.574.095-.643.084c-.22.023-.436.039-.648.046-2.822.094-5.211-.561-7.192-1.946l-.199-.141-.258-.162c-.248.026-.537.052-.866.074-.33.022-.701.043-1.113.061-4.119.181-7.413-.485-9.906-1.964-2.489-1.482-4.096-3.806-4.746-7.039-.649-3.233.009-5.769 1.942-7.685 1.932-1.908 5.036-3.201 9.287-3.729 4.27-.529 7.644 0 10.107 1.594 2.464 1.587 3.936 4.255 4.442 7.842.499 3.533-.247 6.208-2.205 8.056l-.208.238c.241.04.489.071.746.094.256.022.536.027.841.015.358-.016.604-.034.736-.058.132-.022.249-.053.352-.092.308-.115.587-.08.84.105.251.186.364.441.339.765l-.21 3.052zm-10.699-14.893c-1.016-.672-2.398-.925-4.144-.759-1.728.164-2.981.661-3.755 1.47-.774.81-1.033 1.918-.775 3.332.256 1.399.899 2.418 1.921 3.073 1.022.655 2.384.934 4.087.829 1.722-.104 2.963-.545 3.731-1.337.768-.791 1.038-1.915.807-3.374-.234-1.475-.856-2.561-1.872-3.234z"/><path class="st4" d="M50.036 16.037c-.023-.229.04-.436.189-.619.149-.185.344-.286.584-.305 1.905-.142 3.811-.274 5.716-.399.222-.015.424.061.605.225.182.165.283.363.303.597.427 4.933.856 9.679 1.271 14.279.235 2.626-.595 4.469-2.465 5.579-1.723 1-4.297 1.536-7.741 1.64-3.551.106-6.249-.267-8.104-1.123-2.045-.955-3.264-2.733-3.64-5.407-.602-4.297-1.209-8.688-1.79-13.196-.028-.217.03-.415.176-.595s.338-.281.579-.305c1.895-.185 3.79-.36 5.686-.528.24-.021.453.045.639.198.186.153.291.342.317.565.442 3.831.895 7.565 1.343 11.222.151 1.224.551 2.07 1.198 2.555s1.654.696 3.021.64c1.294-.054 2.198-.359 2.716-.928.517-.567.711-1.47.579-2.717-.391-3.697-.789-7.483-1.182-11.378z"/><path class="st4" d="M61.262 36.379c-.213.005-.405-.07-.579-.226-.173-.155-.269-.338-.287-.551-.551-6.397-1.148-13.064-1.742-20.113-.02-.233.046-.443.198-.63.152-.186.339-.286.561-.3 5.393-.33 10.786-.595 16.18-.793.222-.009.421.075.596.251.175.175.269.384.28.625l.212 4.349c.013.255-.059.473-.215.653-.156.181-.343.274-.562.28-3.071.091-6.142.198-9.214.323l.162 2.296c2.612-.097 5.224-.183 7.834-.257.218-.006.414.075.587.244.173.168.265.367.277.598l.214 4.093c.013.244-.057.451-.21.623s-.337.26-.553.264c-2.578.066-5.158.142-7.739.226l.165 2.312c3.249-.083 6.496-.154 9.74-.214.232-.004.429.076.589.239.16.163.245.365.256.604l.188 3.986c.01.216-.056.406-.199.57-.143.163-.329.246-.558.25-5.385.073-10.778.173-16.181.298z"/><path class="st4" d="M18.608 42.253c.231-.009.44.057.627.194.187.139.298.304.333.495.373 2.007.736 4.008 1.086 6.005 2.231-.048 4.458-.094 6.683-.139-.316-2.021-.647-4.049-.988-6.088-.032-.195.019-.368.154-.521.135-.151.318-.23.549-.238 1.95-.063 3.897-.125 5.843-.184.229-.007.436.062.617.206s.286.314.315.513c.878 5.976 1.681 11.826 2.292 17.622.02.192-.039.36-.176.505-.138.146-.317.218-.537.22l-5.598.03c-.221.001-.416-.069-.585-.212-.17-.143-.266-.309-.29-.5-.256-2.126-.542-4.256-.849-6.393-2.199.028-4.4.058-6.604.088.341 2.118.658 4.233.945 6.348.025.19-.029.356-.163.5-.134.144-.312.216-.533.218l-5.616.036c-.204.002-.394-.067-.568-.208-.175-.141-.276-.306-.305-.494-.87-5.694-1.991-11.371-3.169-17.047-.039-.188.007-.355.138-.503s.304-.226.518-.234c1.964-.075 3.923-.149 5.881-.219z"/><path class="st4" d="M56.907 60.749c-.119 0-.252-.039-.401-.12-.149-.08-.252-.177-.311-.29-.484-.792-.973-1.586-1.466-2.381-3.184.017-6.371.035-9.56.055-.36.795-.72 1.587-1.082 2.378-.058.113-.151.21-.279.291s-.26.121-.396.122l-5.259.025c-.339.002-.596-.108-.771-.332-.175-.224-.193-.472-.051-.746 2.884-5.816 5.709-11.731 8.61-17.922.041-.103.135-.198.284-.286.148-.089.275-.134.381-.137 1.558-.038 3.115-.073 4.671-.108.123-.002.259.038.409.12.149.082.265.183.348.3 4.035 6.092 7.849 12.067 11.451 17.937.15.276.164.524.041.744-.124.22-.354.33-.691.331-1.976.005-3.952.012-5.928.019zm-9.641-7.045c1.595-.016 3.188-.029 4.781-.043-.897-1.421-1.809-2.847-2.733-4.277-.684 1.451-1.366 2.89-2.048 4.32z"/><path class="st4" d="M90.883 40.776c.227-.001.421.078.581.236.16.158.242.343.245.554.11 6.365.204 12.444.274 18.373.002.196-.071.368-.221.516s-.335.221-.554.221l-5.054.005c-.219 0-.406-.073-.561-.22-.155-.147-.234-.318-.239-.515-.069-3.199-.151-6.44-.243-9.746-1.766 3.422-3.506 6.771-5.238 10.073-.064.114-.163.213-.295.294-.133.082-.258.123-.375.123l-2.377.004c-.118.001-.246-.039-.384-.121-.138-.081-.242-.179-.313-.293-1.938-3.283-3.925-6.605-5.973-9.977.186 3.275.352 6.492.492 9.672.008.195-.06.366-.206.514-.146.146-.328.22-.547.221l-5.062.014c-.219.001-.409-.072-.568-.218s-.245-.316-.256-.512c-.322-5.887-.752-11.896-1.244-18.142-.016-.207.048-.39.194-.548s.332-.239.56-.243c2.051-.034 4.101-.065 6.149-.094.105-.001.234.036.388.112.153.077.26.167.319.271 2.521 3.67 4.97 7.275 7.354 10.822 2.07-3.567 4.165-7.211 6.302-10.961.066-.105.168-.199.305-.279s.267-.12.389-.121c2.054-.014 4.106-.026 6.158-.035z"/><path class="st4" d="M93.861 60.675c-.202 0-.379-.074-.533-.221-.153-.147-.23-.319-.232-.516-.061-5.929-.142-12.009-.237-18.376-.003-.211.073-.396.228-.556s.337-.239.547-.24c3.527-.01 7.054-.012 10.582-.005.908.001 1.731.123 2.47.363.738.24 1.4.59 1.984 1.048.601.493 1.055 1.041 1.364 1.643.309.602.455 1.291.438 2.066-.02.948-.243 1.777-.669 2.493-.426.715-1.08 1.29-1.96 1.729.886.357 1.555.799 2.008 1.321.838.979 1.239 2.23 1.21 3.742-.031 1.679-.707 3.026-2.021 4.059-1.246.968-2.849 1.447-4.82 1.447-3.452 0-6.906.001-10.359.003zm5.986-8.149l.001 3.729h1.755c.712 0 1.301-.165 1.771-.497.468-.332.705-.772.709-1.322.004-.584-.214-1.048-.655-1.393-.442-.343-1.021-.516-1.738-.517h-1.843zm-.004-7.076l.001 3.219h1.573c.653 0 1.182-.161 1.588-.485.406-.324.611-.684.614-1.078.003-.446-.188-.834-.575-1.162-.387-.328-.918-.493-1.593-.493l-1.608-.001z"/><path class="st4" d="M119.443 53.84c-.069 2.059-.133 4.094-.19 6.113-.005.196-.086.367-.242.514s-.344.22-.562.22l-5.611-.007c-.203-.001-.378-.074-.527-.222-.149-.147-.222-.318-.219-.516.104-5.925.245-12 .407-18.357.005-.211.089-.396.25-.553.161-.158.347-.236.557-.234 4.385.026 8.772.065 13.163.118 2.258.027 4.041.552 5.336 1.556 1.396 1.092 2.027 2.501 1.911 4.215-.131 1.936-.814 3.312-2.049 4.157-.305.216-.655.419-1.052.608-.396.19-.83.358-1.3.506.533.288.982.599 1.348.934s.668.669.905 1.002c1.062 1.921 2.12 3.821 3.178 5.706.154.277.153.534-.002.769-.156.235-.394.353-.714.352l-6.427-.016c-.135-.001-.264-.041-.387-.123-.124-.082-.217-.18-.28-.294-1.003-1.943-2.007-3.901-3.015-5.882l.023.05-.207-.25c-.073-.083-.151-.149-.234-.2-.133-.101-.659-.152-1.58-.156l-2.48-.01zm.15-8.326c-.05 1.282-.098 2.554-.145 3.815l3.093.017c1.255.007 2.215-.13 2.884-.414.668-.283 1.022-.796 1.061-1.545.033-.63-.194-1.093-.681-1.389-.488-.295-1.208-.447-2.161-.455-1.35-.011-2.701-.021-4.051-.029z"/><path class="st4" d="M136.688 60.728c-.203-.001-.376-.074-.52-.221s-.211-.317-.2-.513c.321-5.888.749-11.897 1.237-18.145.016-.207.109-.387.279-.54s.36-.228.571-.224c5.111.088 10.23.193 15.362.317.211.005.387.085.528.241s.199.335.175.538c-.144 1.231-.285 2.455-.422 3.673-.024.218-.123.399-.297.547-.173.146-.364.219-.573.215-2.924-.049-5.844-.094-8.761-.134l-.179 2.014c2.481.029 4.964.062 7.45.096.208.003.382.08.522.231.141.151.2.326.179.525-.124 1.19-.245 2.376-.36 3.556-.021.214-.116.393-.284.539-.168.146-.355.218-.561.216-2.46-.014-4.918-.026-7.375-.036l-.16 2.069c3.093.019 6.189.04 9.289.063.222.002.398.076.53.224.131.147.187.327.167.538-.111 1.185-.216 2.365-.315 3.543-.016.193-.103.362-.258.507-.156.145-.344.216-.563.215-5.161-.02-10.313-.039-15.461-.054z"/><path class="st1" d="M167.13 34.388c-1.222 4.519-2.413 8.971-3.527 13.37-.115.347-.296.636-.545.869-.25.232-.525.347-.827.342l-3.671-.06c-.301-.004-.556-.127-.762-.369s-.322-.539-.347-.892c.007-4.426.055-8.935.107-13.573.42-3.3.852-6.658 1.28-10.087.052-.415.221-.772.507-1.068.286-.296.624-.43 1.014-.402 2.387.17 4.774.35 7.164.539.354.028.633.204.837.527.204.323.276.686.218 1.088-.479 3.288-.967 6.523-1.448 9.716zm-3.807 16.255c.334.005.6.15.797.437.197.285.269.632.217 1.038-.315 2.456-.607 4.896-.866 7.327-.04.371-.188.695-.446.973-.258.276-.55.414-.877.413-2.045-.011-4.089-.021-6.132-.029-.327-.002-.593-.143-.797-.424-.205-.28-.29-.607-.257-.981.22-2.444.467-4.903.736-7.385.044-.41.199-.757.464-1.039.264-.282.564-.421.898-.417 2.086.027 4.174.056 6.263.087z"/><path class="st4" d="M177.58 59.848c-.011.079-.072.178-.181.296-.11.118-.201.192-.273.224-.255.126-.84.296-1.751.513-.893.2-1.78.299-2.663.294-2.257-.013-4.008-.65-5.258-1.922-1.23-1.288-1.724-3.01-1.449-5.17.148-1.16.462-2.188.941-3.081.478-.893 1.124-1.674 1.939-2.342 1.625-1.318 3.671-1.946 6.111-1.887 1.088.026 1.963.145 2.624.354.66.209 1.201.414 1.624.616.082.034.165.116.247.246s.116.242.099.338c-.071 1.054-.14 2.104-.204 3.155-.019.318-.171.55-.457.696-.286.147-.561.131-.827-.049-.124-.098-.306-.204-.548-.32-.242-.115-.551-.248-.928-.398-.654-.267-1.32-.407-1.998-.419-.834-.014-1.529.256-2.081.81-.552.555-.899 1.33-1.039 2.322-.125.881.036 1.531.477 1.951.441.421 1.192.635 2.255.646.583.006 1.244-.115 1.985-.362l.718-.231.447-.138-.051-.001.248-.104c.072-.022.169-.034.29-.032.241.003.422.084.544.244.122.16.148.351.081.572-.317 1.059-.624 2.118-.922 3.179z"/><path class="st4" d="M187.219 42.465c.178.007.315.084.411.229.095.146.124.313.085.502-1.173 5.682-2.288 11.361-3.153 17.058-.029.188-.113.354-.253.494-.141.142-.296.211-.466.21l-4.11-.027c-.188-.001-.331-.073-.43-.216-.1-.144-.137-.31-.11-.5.795-5.725 1.824-11.454 2.919-17.22.036-.191.13-.356.282-.495.151-.139.326-.205.521-.197 1.433.052 2.868.106 4.304.162z"/></g><g id="Sambuch"><path class="st3" d="M94.144 20.594c-.243-.166-.342-.367-.326-.599.417-6.112 5.511-10.942 11.734-10.942 5.998 0 10.947 4.487 11.67 10.286.055.444.053.755-.267 1.056-.397.374-.486.3-1.847.3h-20.14c-.24-.001-.585.063-.824-.101z"/><path class="st3" d="M94.368 28.948h21.965c.285 0 .517.231.517.517v2.892c0 .286-.231.517-.517.517h-21.965c-.285 0-.517-.23-.517-.517v-2.892c0-.285.232-.517.517-.517z"/><path class="st5" d="M101.743 9.758c.499-.151.973-.041 1.06.245.087.287-.246.642-.745.793s-.973.042-1.06-.245c-.087-.286.246-.642.745-.793z"/><path class="st5" d="M104.119 9.147c.542-.093 1.017.042 1.062.302s-.357.547-.899.64c-.542.094-1.017-.041-1.062-.301-.045-.26.358-.547.899-.641z"/><path class="st5" d="M105.723 10.312c.582.114 1.007.438.951.726s-.573.428-1.154.313c-.581-.113-1.007-.438-.95-.726.055-.286.572-.426 1.153-.313z"/><path class="st5" d="M107.429 9.331c.581.114 1.007.439.951.726-.056.287-.573.428-1.154.313-.581-.113-1.007-.438-.951-.726.056-.286.573-.426 1.154-.313z"/><path class="st5" d="M95.143 22.027h20.362c.286 0 .517.381.517.851v.255c0 .47-.231.851-.517.851h-20.362c-.286 0-.517-.381-.517-.851v-.255c0-.47.231-.851.517-.851z"/><path class="st5" d="M95.143 25.855h20.362c.286 0 .517.381.517.851v.255c0 .47-.231.851-.517.851h-20.362c-.286 0-.517-.381-.517-.851v-.255c0-.47.231-.851.517-.851z"/></g><g id="Layer_1"><path class="st3" d="M103.178 27.089c-.196.48-1.745 1.404-2.195 1.704-.465.31-2.274 1.55-3.566 1.395s-1.654-.775-2.429-1.188c-.775-.413-2.584-1.085-2.429-1.911v6.869c-.155.826 1.654 1.498 2.429 1.911.775.413 1.137 1.033 2.429 1.188 1.292.155 3.101-1.084 3.566-1.395.404-.27 1.756-.846 2.158-1.35l.037-7.223z"/><path class="st3" d="M84.351 26.004h-.009v.022l.009-.022z"/><path class="st3" d="M92.197 26.033c-.146.364-1.291 1.063-1.624 1.29-.344.234-1.683 1.173-2.639 1.056s-1.224-.587-1.798-.899c-.565-.309-1.866-.807-1.795-1.42v5.489l-.002.011c-.115.625 1.224 1.134 1.797 1.446s.842.782 1.798.899 2.295-.821 2.639-1.056c.325-.222 1.435-.896 1.621-1.268h.002v-.005l.021-.057-.021-.077v-5.409z"/><path class="st5" d="M87.442 26.83l1.137.052s.827-.361 1.034-.517c.207-.154.155-.671-.104-.826s-.414-.258-.93-.361c-.517-.104-.465.104-.93.258-.465.155-1.137-.154-1.241.311-.102.464.621 1.083 1.034 1.083z"/><path class="st1" d="M85.984 24.937c.421-.313 1.104-.521 1.912-.587.957-.078 1.341.276 1.875.47.545.197 2.224.862 2.413 1.24l.035-.066c.077-.352-1.775-1.079-2.448-1.329-.532-.198-.918-.548-1.875-.47-.809.066-1.491.274-1.912.587-.421.313-1.53.626-1.645 1.252l.011.125c.146-.605 1.22-.915 1.634-1.222z"/><path class="st3" d="M94.781 25.591c.568-.413 1.491-.688 2.584-.774 1.292-.104 1.803.396 2.533.619.418.128 3.002 1.134 3.282 1.647l.025-.046c.103-.465-2.71-1.558-3.308-1.756-.724-.24-1.241-.724-2.533-.62-1.093.088-2.016.361-2.584.774-.568.414-2.067.827-2.222 1.653l.012.125c.186-.805 1.65-1.214 2.211-1.622z"/><path class="st2" d="M103.18 27.083c-.28-.514-2.864-1.52-3.282-1.647-.73-.223-1.241-.723-2.533-.619-1.093.087-2.016.361-2.584.774-.562.408-2.025.817-2.21 1.623l-.012-.125c-.155.826 1.654 1.498 2.429 1.911.775.413 1.137 1.032 2.429 1.188s3.101-1.085 3.566-1.395c.465-.31 2.119-1.291 2.223-1.756l-.026.046z"/><path class="st5" d="M95.04 26.985c.517-.672.465-.672 1.085-.672s.827-.516 1.344-.516c.517 0 .878.361 1.292.516.414.155 1.396.311 1.55.827.155.517-.207.723-.568.878s-.724.723-1.24.723c-.517 0-1.034.155-1.396-.052-.362-.206-.62-.516-1.24-.671s-1.344-.361-.827-1.033z"/></g><g id="Pizza"><path class="st3" d="M123.762 12.851c5.93 0 10.737 4.805 10.737 10.73 0 5.927-4.807 10.731-10.737 10.731s-10.738-4.805-10.738-10.731 4.808-10.73 10.738-10.73z"/><path class="st2" d="M123.762 13.238c-5.716 0-10.349 4.631-10.349 10.343 0 5.713 4.633 10.343 10.349 10.343s10.349-4.63 10.349-10.343c0-5.712-4.633-10.343-10.349-10.343zm0 19.834c-5.245 0-9.497-4.249-9.497-9.491 0-5.241 4.252-9.49 9.497-9.49s9.497 4.249 9.497 9.49c0 5.242-4.252 9.491-9.497 9.491z"/><path class="st1" d="M123.728 23.098l.625-13.804 6.39 1.854-7.015 11.95z"/><path class="st0" d="M124.554 9.604l-.685 12.979 6.559-11.312-5.874-1.667zm.475.792l4.508 1.311-5.034 8.896.526-10.207z"/><path class="st5" d="M126.979 12.317c.657 0 1.189.531 1.189 1.188s-.532 1.188-1.189 1.188c-.656 0-1.188-.532-1.188-1.188s.531-1.188 1.188-1.188z"/><path class="st2" d="M125.687 13.878l.918 2.72-.792.268-.918-2.72.792-.268z"/><path class="st5" d="M116.875 20.994c.585 0 1.06.474 1.06 1.059s-.475 1.059-1.06 1.059-1.06-.474-1.06-1.059.475-1.059 1.06-1.059z"/><path class="st5" d="M119.924 16.346c.642 0 1.163.521 1.163 1.162s-.521 1.162-1.163 1.162-1.163-.521-1.163-1.162.521-1.162 1.163-1.162z"/><path class="st5" d="M122.25 23.835c.614 0 1.111.497 1.111 1.11s-.498 1.11-1.111 1.11-1.111-.497-1.111-1.11.497-1.11 1.111-1.11z"/><path class="st5" d="M119.64 28.38c.656 0 1.188.532 1.188 1.188 0 .656-.532 1.188-1.188 1.188-.657 0-1.189-.532-1.189-1.188 0-.656.532-1.188 1.189-1.188z"/><path class="st5" d="M129.744 26.107c.585 0 1.06.474 1.06 1.059s-.475 1.059-1.06 1.059-1.06-.474-1.06-1.059.475-1.059 1.06-1.059z"/><path class="st5" d="M129.614 19.961c.657 0 1.189.532 1.189 1.188 0 .655-.532 1.188-1.189 1.188-.656 0-1.188-.532-1.188-1.188 0-.656.532-1.188 1.188-1.188z"/><path class="st2" d="M121.139 17.896h1.085v3.719h-1.085v-3.719z"/><path class="st2" d="M127.111 25.043l3.531-2.049.597 1.027-3.531 2.049-.597-1.027z"/><path class="st2" d="M122.604 29.813l3.927-1.447.43 1.162-3.928 1.448-.429-1.163z"/><path class="st2" d="M117.525 23.78l1.174-.399 1.299 3.813-1.174.399-1.299-3.813z"/></g></svg>